# xmcd
#
# Track frame offsets:
#	150
#	19123
#	39127
#	57823
#	81323
#	103451
#	118823
#	137727
#	157215
#	176911
#
# Disc length: 2592 seconds
#
# Revision: 2
# Processed by: cddbd v1.5.2PL0 Copyright (c) Steve Scherf et al.
# Submitted via: EZCDAudioConverter 8.0.2.1
#
DISCID=8b0a1e0a
DTITLE=Đức Tuấn - Bây Giờ ... Biển Mùa Đông
DYEAR=2010
DGENRE=Miscellaneous
TTITLE0=Đức Tuấn - Trở về
TTITLE1=Đức Tuấn - Bài ca dao mùa đông
TTITLE2=Đức Tuấn - Tiếng võng
TTITLE3=Đức Tuấn - Cửa sổ mùa đông
TTITLE4=Đức Tuấn - Bây Giờ ... Biển Mùa Đông
TTITLE5=Đức Tuấn - Ở lại mùa đông
TTITLE6=Đức Tuấn - Xa xăm
TTITLE7=Đức Tuấn - Về tìm trên cát
TTITLE8=Đức Tuấn, Xuân Huy - Bài hát buồn
TTITLE9=Đức Tuấn - Đi về cuối biển
EXTD=
EXTT0=
EXTT1=
EXTT2=
EXTT3=
EXTT4=
EXTT5=
EXTT6=
EXTT7=
EXTT8=
EXTT9=
PLAYORDER=
